<svg id="Capa_1" enable-background="new 0 0 512 512" height="45" viewBox="0 0 512 512" style="fill: #28ccd2" width="45" xmlns="http://www.w3.org/2000/svg"><g><path d="m489.03 241.933v-62.62h22.97v-62.714l-256-116.489-256 116.489v62.714h22.97v62.62h35.49v179.957h-58.46v90h512v-90h-58.46v-179.957zm-459.03-106.026 226-102.837 226 102.837v13.406h-452zm22.97 43.406h406.06v32.62h-406.06zm250.233 242.577v-179.957h55.932v179.957zm-94.406-179.957v179.957h-55.932v-179.957zm30 0h34.405v179.957h-34.405zm-150.337 0h34.405v179.957h-34.405zm393.54 239.957h-452v-30h452zm-58.46-60h-34.405v-179.957h34.405z"/><path d="m256 54.311c-23.02 0-41.747 18.728-41.747 41.747s18.727 41.747 41.747 41.747 41.747-18.728 41.747-41.747-18.727-41.747-41.747-41.747zm0 53.494c-6.478 0-11.747-5.27-11.747-11.747s5.27-11.747 11.747-11.747 11.747 5.27 11.747 11.747-5.269 11.747-11.747 11.747z"/></g></svg>